<?xml version="1.0" standalone="no"?><!DOCTYPE svg PUBLIC "-//W3C//DTD SVG 1.1//EN" "http://www.w3.org/Graphics/SVG/1.1/DTD/svg11.dtd"><svg t="1740302061964" class="icon" viewBox="0 0 1024 1024" version="1.1" xmlns="http://www.w3.org/2000/svg" p-id="3616" xmlns:xlink="http://www.w3.org/1999/xlink" width="256" height="256"><path d="M490.656 64h42.688v255.562h-42.688z" fill="#CCD1D9" p-id="3617"></path><path d="M512 298.656c-176.718 0-320 143.282-320 320V1024h640V618.656c0-176.718-143.25-320-320-320z" fill="#E6E9ED" p-id="3618"></path><path d="M512 64m-64 0a64 64 0 1 0 128 0 64 64 0 1 0-128 0Z" fill="#E6E9ED" p-id="3619"></path><path d="M384 704c-47.062 0-85.344-38.282-85.344-85.344 0-47.032 38.282-85.344 85.344-85.344h256c47.062 0 85.344 38.312 85.344 85.344C725.344 665.718 687.062 704 640 704H384z" fill="#F5F7FA" p-id="3620"></path><path d="M640 512H384c-58.906 0-106.656 47.75-106.656 106.656s47.75 106.656 106.656 106.656h256c58.906 0 106.656-47.75 106.656-106.656S698.906 512 640 512z m0 170.656H384c-35.282 0-64-28.718-64-64s28.718-64 64-64h256c35.282 0 64 28.718 64 64s-28.718 64-64 64z" fill="#AAB2BD" p-id="3621"></path><path d="M640 597.312H384c-11.782 0-21.344 9.562-21.344 21.344S372.218 640 384 640h256c11.782 0 21.344-9.562 21.344-21.344s-9.562-21.344-21.344-21.344z" fill="#48CFAD" p-id="3622"></path><path d="M149.344 554.656C137.562 554.656 128 564.218 128 576v64c-11.782 0-21.344 9.562-21.344 21.312 0 11.812 9.562 21.344 21.344 21.344v64C128 758.438 137.562 768 149.344 768s21.312-9.562 21.312-21.344V576c0-11.782-9.532-21.344-21.312-21.344zM896 640v-64c0-11.782-9.562-21.344-21.344-21.344s-21.312 9.562-21.312 21.344v170.656c0 11.782 9.532 21.344 21.312 21.344S896 758.438 896 746.656v-64c11.782 0 21.344-9.532 21.344-21.344 0-11.75-9.562-21.312-21.344-21.312z" fill="#434A54" p-id="3623"></path><path d="M640 832c-11.782 0-21.344 9.562-21.344 21.312H405.344c0-11.75-9.562-21.312-21.344-21.312s-21.344 9.562-21.344 21.312v21.344c0 11.782 9.562 21.344 21.344 21.344h256c11.782 0 21.344-9.562 21.344-21.344v-21.344c0-11.75-9.562-21.312-21.344-21.312z" fill="#656D78" p-id="3624"></path></svg>